<?xml version="1.0" standalone="no"?>
<!DOCTYPE svg PUBLIC "-//W3C//DTD SVG 20010904//EN"
 "http://www.w3.org/TR/2001/REC-SVG-20010904/DTD/svg10.dtd">
<svg version="1.0" xmlns="http://www.w3.org/2000/svg"
 width="500.000000pt" height="500.000000pt" viewBox="0 0 500.000000 500.000000"
 preserveAspectRatio="xMidYMid meet">

<g transform="translate(0.000000,500.000000) scale(0.100000,-0.100000)"
fill="#000000" stroke="none">
<path d="M0 2500 l0 -2500 2500 0 2500 0 0 2500 0 2500 -2500 0 -2500 0 0
-2500z m2410 955 l0 -85 90 0 90 0 0 85 0 85 100 0 100 0 0 -85 0 -85 90 0 90
0 0 -100 0 -100 -90 0 -90 0 0 -90 0 -90 90 0 90 0 0 -100 0 -100 -90 0 -90 0
0 -90 0 -90 -100 0 -99 0 -3 88 -3 87 -87 3 -88 3 0 -91 0 -90 -105 0 -105 0
0 90 0 90 -80 0 -80 0 0 100 0 100 80 0 80 0 0 90 0 90 -80 0 -80 0 0 100 0
100 80 0 80 0 0 85 0 85 105 0 105 0 0 -85z m-162 -1257 l3 -58 54 0 55 0 0
-50 0 -50 -55 0 -56 0 3 -102 3 -103 44 0 c43 0 44 -1 57 -45 15 -50 13 -53
-51 -71 -50 -14 -111 -6 -144 18 -48 35 -61 77 -61 196 l0 107 -31 0 c-30 0
-30 1 -27 48 3 43 5 47 31 50 26 3 27 6 27 56 0 29 3 56 7 60 4 4 37 6 73 4
l65 -3 3 -57z m-848 -70 l0 -31 23 21 c25 23 68 42 98 42 17 0 19 -7 19 -65
l0 -65 -30 0 c-43 0 -89 -26 -100 -56 -6 -14 -10 -77 -10 -140 l0 -114 -70 0
-70 0 0 220 0 220 70 0 70 0 0 -32z m495 13 c71 -33 106 -88 120 -188 l7 -53
-156 0 c-86 0 -156 -3 -156 -6 0 -17 24 -46 50 -59 39 -20 66 -19 118 6 l43
21 35 -33 c32 -31 33 -33 16 -52 -47 -52 -146 -76 -237 -57 -46 10 -66 21
-105 58 -40 39 -50 56 -59 103 -32 155 67 279 223 279 38 0 76 -8 101 -19z
m675 -129 c4 -127 7 -145 24 -158 30 -22 70 -17 97 12 23 24 24 34 27 160 l4
134 69 0 69 0 0 -220 0 -220 -70 0 -70 0 0 32 c0 32 0 32 -15 11 -22 -31 -96
-57 -147 -50 -54 7 -88 33 -115 87 -21 40 -23 58 -23 195 0 84 3 155 7 159 4
4 37 6 73 4 l65 -3 5 -143z m540 111 c0 -36 1 -37 15 -17 17 25 74 54 104 54
19 0 21 -6 21 -65 l0 -65 -31 0 c-43 0 -86 -28 -99 -63 -5 -17 -10 -79 -10
-138 l0 -109 -70 0 -70 0 0 220 0 220 70 0 70 0 0 -37z m350 3 c5 -27 6 -28
19 -12 39 47 137 61 201 28 20 -9 44 -34 57 -57 21 -37 23 -53 23 -202 l0
-163 -70 0 -70 0 0 126 c0 160 -11 184 -82 184 -28 0 -42 -6 -57 -26 -19 -24
-21 -40 -21 -155 l0 -129 -75 0 -75 0 0 213 c0 118 3 217 7 221 4 4 37 6 73 4
63 -3 65 -4 70 -32z m-2160 -651 c0 -30 -4 -55 -10 -55 -5 0 -10 25 -10 55 0
30 5 55 10 55 6 0 10 -25 10 -55z m130 18 l25 -37 3 37 c5 58 22 43 22 -18 0
-30 -4 -55 -9 -55 -5 0 -23 19 -40 42 l-31 42 0 -42 c0 -23 -4 -42 -10 -42 -5
0 -10 25 -10 55 0 66 14 71 50 18z m193 30 c-20 -4 -23 -11 -23 -54 0 -27 -4
-49 -10 -49 -5 0 -10 22 -10 49 0 39 -4 51 -17 54 -10 3 5 5 32 4 28 0 40 -2
28 -4z m130 0 c-39 -5 -46 -33 -9 -33 14 0 28 -4 31 -10 4 -6 -7 -10 -24 -10
-24 0 -31 -4 -31 -19 0 -15 8 -21 38 -24 34 -3 33 -4 -10 -5 l-48 -2 0 55 0
55 43 -2 c36 -1 38 -2 10 -5z m195 -22 c2 -13 -1 -28 -7 -34 -7 -7 -7 -16 0
-29 7 -12 6 -18 -1 -18 -6 0 -13 7 -16 15 -4 8 -15 15 -25 15 -10 0 -19 -7
-19 -15 0 -8 -4 -15 -10 -15 -5 0 -10 25 -10 56 l0 55 43 -3 c35 -3 43 -7 45
-27z m131 -13 l31 -42 0 42 c0 23 5 42 10 42 6 0 10 -25 10 -55 0 -68 -14 -71
-55 -12 l-30 42 -6 -45 -6 -45 -1 58 c-1 31 2 57 7 57 5 0 23 -19 40 -42z
m179 35 c-47 -5 -54 -33 -8 -33 17 0 30 -4 30 -10 0 -5 -14 -10 -31 -10 -44 0
-36 -33 11 -41 l35 -6 -42 -2 -43 -1 0 55 0 55 43 -2 42 -1 -37 -4z m165 0
c-20 -4 -23 -11 -23 -54 0 -27 -4 -49 -10 -49 -5 0 -10 22 -10 49 0 39 -4 51
-17 54 -10 3 5 5 32 4 28 0 40 -2 28 -4z m247 -3 c0 -6 -10 -8 -24 -4 -39 9
-39 -12 -1 -35 31 -18 34 -23 25 -41 -11 -20 -35 -25 -64 -14 -9 3 -16 10 -16
15 0 5 10 5 23 0 48 -18 64 9 17 29 -28 12 -39 37 -23 53 10 11 63 8 63 -3z
m133 3 c-40 -5 -46 -33 -8 -33 14 0 25 -4 25 -10 0 -5 -11 -10 -25 -10 -18 0
-25 -5 -25 -19 0 -15 8 -21 33 -24 28 -3 26 -4 -10 -5 l-43 -2 0 55 0 55 43
-2 c36 -1 38 -2 10 -5z m186 -11 c7 -14 6 -25 -5 -40 -9 -13 -11 -23 -4 -27 5
-3 10 -11 10 -17 0 -6 -8 -4 -18 5 -23 21 -52 22 -52 2 0 -8 -4 -15 -10 -15
-5 0 -10 25 -10 55 l0 55 40 0 c28 0 42 -5 49 -18z m107 -28 l18 -46 16 43
c10 24 22 45 28 47 7 2 2 -18 -9 -45 -22 -50 -36 -70 -43 -62 -12 11 -45 109
-37 109 5 0 17 -21 27 -46z m154 -9 c0 -30 -4 -55 -10 -55 -5 0 -10 25 -10 55
0 30 5 55 10 55 6 0 10 -25 10 -55z m165 45 c4 -6 -5 -7 -23 -4 -34 7 -55 -14
-50 -48 2 -19 9 -23 41 -23 42 0 45 -18 3 -23 -54 -7 -85 50 -49 90 17 19 68
25 78 8z m133 3 c-43 -5 -55 -33 -14 -33 14 0 28 -4 31 -10 4 -6 -7 -10 -24
-10 -24 0 -31 -4 -31 -19 0 -15 8 -21 38 -24 34 -3 33 -4 -10 -5 l-48 -2 0 55
0 55 48 -2 c43 -1 44 -2 10 -5z m172 -3 c0 -6 -11 -8 -25 -4 -19 5 -25 2 -25
-9 0 -9 9 -18 19 -22 11 -3 25 -12 31 -20 26 -31 -31 -60 -70 -35 -20 13 -6
24 17 12 20 -10 43 -6 43 9 0 6 -13 15 -30 20 -28 10 -40 36 -23 52 10 11 63
8 63 -3z"/>
<path d="M2410 3080 l0 -90 90 0 90 0 0 90 0 90 -90 0 -90 0 0 -90z"/>
<path d="M1739 2031 c-16 -16 -29 -34 -29 -40 0 -7 30 -11 80 -11 72 0 80 2
80 19 0 25 -46 61 -77 61 -14 0 -37 -13 -54 -29z"/>
<path d="M1880 1495 c0 -22 4 -26 23 -23 14 2 22 10 22 23 0 13 -8 21 -22 23
-19 3 -23 -1 -23 -23z"/>
<path d="M2920 1495 c0 -23 4 -26 28 -23 19 2 27 9 27 23 0 14 -8 21 -27 23
-24 3 -28 0 -28 -23z"/>
</g>
</svg>
